<?xml version="1.0" encoding="UTF-8" standalone="no"?>
<svg xmlns="http://www.w3.org/2000/svg" width="692" height="640" viewBox="0 0 692 640">
  <rect id="brclogo-bg" fill="#ffffff" width="692" height="640" x="0" y="0" />
  <polygon id="brclogo-redcross" fill="#e3000f" points="231.910,154.687 231.910,77.334 154.549,77.334 154.549,154.687 77.204,154.687 77.204,232.040 154.549,232.040 154.549,309.384 231.910,309.384 231.910,232.040 309.254,232.040 309.254,154.687" />
  <path id="brclogo-text" fill="#1a1a18" d="m 604.11558,518.45374 c 0,-4.08798 -3.75198,-6.024 -10.8,-6.024 -6.92796,0 -10.56798,1.93602 -10.56798,6.024 v 1.93602 c 0,2.952 2.72802,4.54398 4.776,5.22402 l 17.04798,5.91198 c 6.24804,2.16 10.224,5.79198 10.224,11.136 v 6.36798 c 0,7.04004 -6.24796,13.632 -21.59196,13.632 -15.45598,0 -21.48,-6.59196 -21.48,-13.632 v -2.83998 c 0,-1.368 0.56822,-2.04798 1.93596,-2.04798 h 6.02402 c 1.47202,0 1.92804,0.67998 1.92804,2.04798 v 2.38398 c 0,4.08804 4.32,6.01602 11.59198,6.01602 7.16,0 11.59202,-1.92798 11.59202,-6.01602 v -3.072 c 0,-2.72796 -2.27204,-4.2 -6.02402,-5.45598 l -17.04802,-5.904 c -4.20002,-1.48002 -8.864,-5.80002 -8.864,-11.47998 v -4.20804 c 0,-7.03998 5.232,-13.97598 20.576,-13.97598 15.22402,0 20.568,6.936 20.568,13.97598 v 2.72802 c 0,1.48002 -0.45602,2.04798 -2.048,2.04798 h -5.904 c -1.368,0 -1.93602,-0.5682 -1.93602,-2.04798 z m -52.60956,0 c 0,-4.08798 -3.75204,-6.024 -10.79998,-6.024 -6.92804,0 -10.56806,1.93602 -10.56806,6.024 v 1.93602 c 0,2.952 2.72802,4.54398 4.776,5.22402 l 17.04804,5.91198 c 6.24798,2.16 10.22402,5.79198 10.22402,11.136 v 6.36798 c 0,7.04004 -6.24804,13.632 -21.59202,13.632 -15.45602,0 -21.48002,-6.59196 -21.48002,-13.632 v -2.83998 c 0,-1.368 0.5682,-2.04798 1.93602,-2.04798 h 6.024 c 1.47198,0 1.92798,0.67998 1.92798,2.04798 v 2.38398 c 0,4.08804 4.32002,6.01602 11.59202,6.01602 7.15996,0 11.59198,-1.92798 11.59198,-6.01602 v -3.072 c 0,-2.72796 -2.27202,-4.2 -6.024,-5.45598 l -17.04798,-5.904 c -4.2,-1.48002 -8.856,-5.80002 -8.856,-11.47998 v -4.20804 c 0,-7.03998 5.22396,-13.97598 20.568,-13.97598 15.22398,0 20.568,6.936 20.568,13.97598 v 2.72802 c 0,1.48002 -0.456,2.04798 -2.04804,2.04798 h -5.904 c -1.368,0 -1.93596,-0.5682 -1.93596,-2.04798 z m -54.88884,2.50164 c 0,-4.88802 -3.408,-7.61604 -11.928,-7.61604 -8.52798,0 -11.93598,2.72802 -11.93598,7.61604 v 25.23198 c 0,4.87998 3.408,7.608 11.93598,7.608 8.52,0 11.928,-2.72802 11.928,-7.608 z m -34.66398,-0.912 c 0,-9.32004 6.71202,-15.56802 22.73598,-15.56802 16.02402,0 22.728,6.24798 22.728,15.56802 v 27.048 c 0,9.31998 -6.70398,15.56796 -22.728,15.56796 -16.02396,0 -22.73598,-6.24798 -22.73598,-15.56796 z m -7.94718,-13.40724 v 5.22402 c 0,1.60002 -0.792,2.16 -2.27202,2.28 -8.52798,0.5598 -15,4.992 -17.616,7.272 v 38.07198 c 0,1.584 -0.5682,2.27202 -2.04798,2.27202 H 425.478 c -1.584,0 -2.15202,-0.68802 -2.15202,-2.27202 v -51.936 c 0,-1.47996 0.5682,-2.16 2.15202,-2.16 h 6.024 c 1.59198,0 2.04798,0.68004 2.16,2.16 l 0.3438,4.88004 c 3.06402,-3.06402 9.432,-7.95204 17.72802,-7.95204 1.48004,0 2.27202,0.68004 2.27202,2.16 m -43.4064,38.52564 c 0,9.31998 -5.568,17.50398 -25.11204,17.50398 -19.55196,0 -25.11996,-8.184 -25.11996,-17.50398 v -44.09604 c 0,-9.312 5.568,-17.496 25.11996,-17.496 19.54404,0 25.11204,8.184 25.11204,17.496 v 5.568 c 0,1.59204 -0.5682,2.27202 -2.04804,2.27202 h -6.59196 c -1.59204,0 -2.16,-0.67998 -2.16,-2.27202 v -3.744 c 0,-6.13596 -3.97602,-9.888 -14.20002,-9.888 -10.23198,0 -14.09598,3.75204 -14.09598,9.888 v 40.45602 c 0,6.13602 3.864,9.88002 14.09598,9.88002 10.224,0 14.20002,-3.744 14.20002,-9.88002 v -5.34402 c 0,-1.47996 0.5682,-2.16 2.16,-2.16 h 6.59196 c 1.48002,0 2.04804,0.68004 2.04804,2.16 z m -123.86562,0.3426 c 0,3.97602 1.93602,7.38402 8.40804,7.38402 7.15998,0 12.96,-3.97602 15.456,-5.79198 v -26.93604 c -2.496,-1.93596 -8.29602,-5.91198 -15.456,-5.91198 -6.47202,0 -8.40804,3.408 -8.40804,7.392 z m 24.096,10.56804 c -3.29598,2.50398 -9.43998,6.59196 -18.87198,6.59196 -11.02398,0 -16.02402,-6.13596 -16.02402,-15.456 V 519.9364 c 0,-9.31998 5.00004,-15.456 16.02402,-15.456 9.20802,0 15.23202,3.97602 18.64002,6.47202 v -26.36004 c 0,-1.59198 0.456,-2.27196 2.04798,-2.27196 h 6.59202 c 1.59198,0 2.16,0.67998 2.16,2.27196 v 74.8878 c 0,1.59198 -0.5682,2.27196 -2.16,2.27196 h -6.024 c -1.59204,0 -2.04804,-0.67998 -2.16,-2.27196 z m -80.00238,-28.1856 h 22.728 v -7.16004 c 0,-4.54398 -2.83998,-7.61598 -11.35998,-7.61598 -8.64,0 -11.36802,3.072 -11.36802,7.61598 z m 32.83998,6.024 c 0,1.368 -0.5682,2.04798 -1.92798,2.04798 h -30.912 v 10.45602 c 0,4.656 2.27202,7.608 11.36802,7.608 9.08796,0 11.35998,-2.952 11.35998,-7.608 v -1.25604 c 0,-1.47198 0.5682,-2.16 2.16,-2.16 h 5.79198 c 1.48002,0 2.16,0.68802 2.16,2.16 v 1.93602 c 0,9.31998 -5.568,15.56802 -21.70398,15.56802 -16.13598,0 -21.70398,-6.24804 -21.70398,-15.56802 v -27.048 c 0,-9.31998 5.79198,-15.56802 21.936,-15.56802 16.02396,0 21.47196,6.24804 21.47196,15.56802 z m -96.01997,-40.00164 v 27.84 h 14.088 c 10.23198,0 14.77602,-3.63198 14.77602,-9.888 v -8.064 c 0,-6.13596 -4.54404,-9.888 -14.77602,-9.888 z m 0,37.272 v 28.296 c 0,1.59204 -0.456,2.28 -2.04798,2.28 h -6.92802 c -1.48002,0 -2.04798,-0.68796 -2.04798,-2.28 V 486.7492 c 0,-1.59198 0.5682,-2.27202 2.04798,-2.27202 h 23.064 c 19.55201,0 25.79999,8.184 25.79999,17.50404 v 11.81598 c 0,6.936 -3.52002,13.18398 -13.29599,15.912 l 13.63997,29.76798 c 0.5682,1.368 -0.456,2.28 -2.04798,2.28 h -6.81599 c -1.59198,0 -1.81602,-0.912 -2.50398,-2.28 l -12.84,-28.296 h -1.93602 z M 494.11464,407.70202 c 1.59198,0 2.04798,0.67998 2.16,2.16 l 0.2322,3.63198 c 3.17604,-2.71998 9.432,-6.70398 18.864,-6.70398 10.56804,0 16.02402,6.144 16.02402,14.55198 v 40.45602 c 0,1.59198 -0.5682,2.27196 -2.04798,2.27196 h -6.59202 c -1.48002,0 -2.16,-0.67998 -2.16,-2.27196 V 423.958 c 0,-4.66398 -2.16,-7.50402 -8.40798,-7.50402 -7.272,0 -12.96,3.864 -15.456,5.79204 v 39.552 c 0,1.59198 -0.5682,2.27196 -2.04804,2.27196 h -6.59196 c -1.59204,0 -2.16,-0.67998 -2.16,-2.27196 v -51.936 c 0,-1.48002 0.5682,-2.16 2.16,-2.16 z m -40.1088,42.50478 v -9.77598 h -15.68802 c -5.68002,0 -7.49598,2.50398 -7.49598,6.936 v 2.27196 c 0,4.43202 2.50398,6.36804 8.184,6.36804 6.92796,0 12.384,-3.75204 15,-5.80002 m -32.39202,-28.07202 c 0,-9.08796 5.91198,-15.34398 21.48,-15.34398 16.02402,0 21.48,6.25602 21.48,15.34398 v 39.66402 c 0,1.59198 -0.5682,2.27202 -2.04,2.27202 h -5.91198 c -1.59204,0 -2.04804,-0.68004 -2.16,-2.27202 l -0.2322,-3.29598 c -3.288,2.616 -9.31998,6.48 -17.952,6.48 -10.56798,0 -16.02402,-6.36804 -16.02402,-13.752 v -5.45604 c 0,-7.38396 5.22402,-13.752 15.792,-13.752 h 17.96004 v -8.75196 c 0,-4.656 -2.38404,-7.728 -11.02404,-7.728 -8.64,0 -11.24796,2.72796 -11.24796,7.38396 v 0.912 c 0,1.59204 -0.5682,2.28 -2.16,2.28 h -5.91204 c -1.47996,0 -2.04798,-0.68796 -2.04798,-2.28 z m -21.5856,39.66402 c 0,1.59198 -0.5682,2.27202 -2.04798,2.27202 h -6.59202 c -1.59198,0 -2.16,-0.68004 -2.16,-2.27202 v -51.82398 c 0,-1.59204 0.5682,-2.27202 2.16,-2.27202 h 6.59202 c 1.47996,0 2.04798,0.67998 2.04798,2.27202 z m 0,-64.66398 c 0,1.47996 -0.5682,2.16 -2.04798,2.16 h -6.59202 c -1.59198,0 -2.16,-0.68004 -2.16,-2.16 v -10.224 c 0,-1.59204 0.5682,-2.28 2.16,-2.28 h 6.59202 c 1.47996,0 2.04798,0.68796 2.04798,2.28 z m -67.49916,50.68638 c 0,3.97602 1.93596,7.38402 8.40798,7.38402 7.15998,0 12.96,-3.97602 15.456,-5.79204 V 422.4772 c -2.496,-1.93602 -8.29602,-5.91198 -15.456,-5.91198 -6.47202,0 -8.40798,3.408 -8.40798,7.392 z m -10.8,1.704 v -27.28002 c 0,-9.312 5.00796,-15.44796 16.02396,-15.44796 9.432,0 15.68802,4.2 18.87204,6.816 l 0.2238,-3.63204 c 0.1122,-1.59996 0.5682,-2.28 2.16,-2.28 h 6.024 c 1.59198,0 2.16,0.68004 2.16,2.28 v 61.704 c 0,9.32004 -6.48,15.56802 -22.50402,15.56802 h -15.67998 c -1.59198,0 -2.27202,-0.5682 -2.27202,-2.16 v -4.776 c 0,-1.47198 0.68004,-2.15202 2.27202,-2.15202 h 15.67998 c 8.52804,0 11.70402,-2.84796 11.70402,-7.61598 v -11.93598 c -3.408,2.50398 -9.432,6.36798 -18.64002,6.36798 -11.016,0 -16.02396,-6.13602 -16.02396,-15.456 m -20.78802,12.2736 c 0,1.59198 -0.5682,2.27202 -2.04798,2.27202 h -6.59202 c -1.59198,0 -2.16,-0.68004 -2.16,-2.27202 v -74.88822 c 0,-1.59204 0.5682,-2.28 2.16,-2.28 h 6.59202 c 1.47996,0 2.04798,0.68796 2.04798,2.28 z m -63.636,-31.59522 h 22.728 v -7.15998 c 0,-4.54398 -2.83998,-7.61598 -11.35998,-7.61598 -8.64,0 -11.36802,3.072 -11.36802,7.61598 z m 32.83998,6.024 c 0,1.368 -0.5682,2.04804 -1.92798,2.04804 h -30.912 v 10.45596 c 0,4.656 2.27202,7.608 11.36802,7.608 9.08796,0 11.35998,-2.952 11.35998,-7.608 v -1.25598 c 0,-1.47198 0.5682,-2.16 2.16,-2.16 h 5.79198 c 1.48002,0 2.16,0.68802 2.16,2.16 v 1.93602 c 0,9.31998 -5.568,15.56796 -21.70398,15.56796 -16.13598,0 -21.70398,-6.24798 -21.70398,-15.56796 v -27.048 c 0,-9.32004 5.79198,-15.56802 21.936,-15.56802 16.02396,0 21.47196,6.24798 21.47196,15.56802 z M 167.64727,428.7268 v 26.136 h 14.43198 c 10.23204,0 14.77602,-3.52002 14.77602,-9.768 v -6.936 c 0,-5.68002 -4.54398,-9.432 -14.77602,-9.432 z m 0,-32.72802 v 24.096 h 11.928 c 9.432,0 13.98402,-3.63996 13.98402,-9.888 v -5.232 c 0,-6.24798 -4.55202,-8.976 -14.77602,-8.976 z m -8.976,68.07204 c -1.48002,0 -2.04798,-0.68004 -2.04798,-2.27202 v -72.73602 c 0,-1.584 0.5682,-2.27196 2.04798,-2.27196 h 20.112 c 19.54398,0 25.79999,7.272 25.79999,16.47996 v 7.16004 c 0,5.91198 -2.72802,10.45596 -9.54401,13.07196 8.63201,2.38404 12.83999,7.272 12.83999,13.86402 v 9.65598 c 0,9.32004 -6.24798,17.04804 -25.79999,17.04804 z" />
</svg>
